<svg width="17" height="20" viewBox="0 0 17 20" fill="none" xmlns="http://www.w3.org/2000/svg">
<path d="M7.69869 4.28808C6.53582 4.3364 5.53344 4.85276 4.68248 5.56843C3.26825 6.7612 2.05995 10.1402 1.45429 11.2424C0.933414 12.1966 0.0551985 16.9496 0.527617 19.0724C1.00004 21.1952 4.78545 18.9546 7.15057 17.0673C9.51569 15.18 13.3011 10.877 12.5925 8.54884C11.8838 6.21765 9.07658 4.22769 7.69869 4.28808Z" fill="#FFAA00"/>
<path d="M8.71875 3.6689C8.71875 3.6689 10.8022 4.68653 11.1596 5.12741C11.5139 5.56828 12.2256 6.23261 12.2256 6.23261C12.2256 6.23261 14.621 5.07909 15.1963 4.28492C15.7717 3.49074 16.438 3.00458 16.438 3.00458C16.438 3.00458 14.3545 2.91701 13.4672 3.3156C13.4672 3.3156 13.555 1.23807 13.4217 0.220436L12.5799 1.23807L12.2256 0L10.8961 2.07754L10.4086 0C10.4086 0 10.1875 0.178161 9.83317 0.751899C9.47886 1.32564 8.72481 3.67192 8.72481 3.67192L8.71875 3.6689Z" fill="#7ABC68"/>
</svg>
