<svg width="30" height="26" viewBox="0 0 30 26" fill="none" xmlns="http://www.w3.org/2000/svg">
<g clip-path="url(#clip0_310_1309)">
<path d="M0.898262 12.0866C-1.18776 14.1911 0.778707 17.9339 2.55142 19.5597C3.88713 20.7853 5.40424 21.9284 8.45907 23.1581C9.39902 23.5336 9.83601 19.7578 13.2825 16.9023C15.5128 15.0495 19.0417 12.8129 25.6379 15.0783C27.0643 15.5694 28.2557 15.5488 29.2327 13.3039C30.218 11.0385 30.5891 7.54743 28.2969 6.60246C26.1944 5.73589 22.3398 9.16503 22.3398 9.16503C22.3398 9.16503 24.669 2.99588 21.2762 1.84045C18.2007 0.792316 14.6924 7.98072 14.6924 7.98072C14.6924 7.98072 15.3026 -0.0536215 11.8066 2.33058e-05C8.97851 0.0454151 8.26119 3.25172 7.91489 6.38788C7.62631 8.97108 7.1316 13.1554 7.1316 13.1554C7.1316 13.1554 2.9142 10.0605 0.898262 12.0866Z" fill="#FFAA00"/>
<path d="M9.83691 24.3878C9.83691 24.3878 11.8199 18.9036 16.4825 16.6217C21.5038 14.1623 27.0157 16.8981 27.0157 16.8981C27.0157 16.8981 26.2778 21.5281 20.3701 24.7798C16.8412 26.7234 9.83691 24.3837 9.83691 24.3837V24.3878Z" fill="#60C91C"/>
</g>
<defs>
<clipPath id="clip0_310_1309">
<rect width="30" height="25.5556" fill="white"/>
</clipPath>
</defs>
</svg>
