<svg width="78" height="43" viewBox="0 0 78 43" fill="none" xmlns="http://www.w3.org/2000/svg">
<g clip-path="url(#clip0_211_955)">
<path d="M39.5498 17.5C39.5498 17.08 39.6698 16.76 39.9098 16.52C40.1498 16.28 40.4698 16.16 40.8898 16.16H43.2098L42.8998 7.12L40.8998 7.16C40.4798 7.19 40.1598 7.08 39.9198 6.83C39.6798 6.58 39.5598 6.24 39.5598 5.83V2.18C39.5598 1.76 39.6798 1.44 39.9198 1.2C40.1598 0.96 40.4798 0.84 40.8998 0.84L60.7598 0.93C61.1798 0.93 61.4998 1.05 61.7398 1.29C61.9798 1.53 62.0998 1.85 62.0998 2.27V5.43C62.0998 5.85 61.9798 6.16 61.7398 6.39C61.4998 6.61 61.1798 6.74 60.7598 6.77L59.3398 6.81L59.0298 15.63L61.2998 15.36C61.7698 15.3 62.1198 15.33 62.3198 15.45C62.5298 15.57 62.6798 15.84 62.7698 16.25L63.2598 19.19C63.4098 20.05 63.0998 20.57 62.3198 20.75C59.2598 21.43 55.8998 21.9 52.2298 22.15C48.5598 22.4 44.7898 22.51 40.8998 22.48C40.4798 22.48 40.1598 22.36 39.9198 22.12C39.6798 21.88 39.5598 21.56 39.5598 21.14V17.49L39.5498 17.5ZM48.7698 40.21C48.0898 40.21 47.5498 40.01 47.1698 39.61C46.7898 39.21 46.5798 38.67 46.5498 37.98L46.3298 26.58C46.2998 25.9 46.4898 25.36 46.9098 24.98C47.3298 24.59 47.8698 24.39 48.5598 24.36L69.5798 24C70.2598 23.97 70.8098 24.16 71.2298 24.58C71.6498 25 71.8398 25.54 71.8098 26.23L71.5398 37.85C71.5098 38.53 71.2998 39.07 70.9198 39.48C70.5398 39.89 69.9998 40.08 69.3198 40.08L48.7898 40.21H48.7698ZM49.7898 16.12C50.2398 16.09 50.6798 16.07 51.1298 16.05C51.5698 16.04 51.9998 16.03 52.4198 16.03V6.95L49.7898 6.99V16.12ZM53.9798 34.29L64.3598 34.2V30.01L53.9798 30.14V34.28V34.29ZM66.3598 22.4C65.9098 22.4 65.5798 22.21 65.3598 21.84C65.1398 21.47 65.0298 21.06 65.0298 20.62L64.7598 1.34C64.7598 0.45 65.1898 0 66.0498 0H71.4798C72.3698 0 72.7998 0.45 72.7698 1.34L72.5898 7.66H76.2398C76.7098 7.66 77.0898 7.8 77.3798 8.08C77.6598 8.36 77.7998 8.74 77.7998 9.22V12.87C77.7998 13.35 77.6598 13.72 77.3798 14.01C77.0998 14.29 76.7198 14.43 76.2398 14.43H72.4498L72.3198 20.62C72.2898 21.07 72.1698 21.47 71.9598 21.84C71.7498 22.21 71.4298 22.4 70.9798 22.4H66.3498H66.3598Z" fill="#60C91C"/>
<path d="M0 20.23C0 19.81 0.12 19.49 0.36 19.25C0.6 19.01 0.92 18.89 1.34 18.89H3.66L3.35 9.84998L1.35 9.88998C0.93 9.91998 0.61 9.80998 0.37 9.55998C0.13 9.30998 0.01 8.96998 0.01 8.55998V4.90998C0.01 4.48998 0.13 4.16998 0.37 3.92998C0.61 3.68998 0.93 3.56998 1.35 3.56998L21.21 3.65998C21.63 3.65998 21.95 3.77998 22.19 4.01998C22.43 4.25998 22.55 4.57998 22.55 4.99998V8.15998C22.55 8.57998 22.43 8.88998 22.19 9.11998C21.95 9.33998 21.63 9.46998 21.21 9.49998L19.79 9.53998L19.48 18.36L21.75 18.09C22.22 18.03 22.57 18.06 22.77 18.18C22.98 18.3 23.13 18.57 23.22 18.98L23.71 21.92C23.86 22.78 23.55 23.3 22.77 23.48C19.71 24.16 16.35 24.63 12.68 24.88C9.01 25.13 5.24 25.24 1.35 25.21C0.93 25.21 0.61 25.09 0.37 24.85C0.13 24.61 0.01 24.29 0.01 23.87V20.22L0 20.23ZM9.22 42.94C8.54 42.94 8 42.74 7.62 42.34C7.24 41.94 7.03 41.4 7 40.71L6.78 29.31C6.75 28.63 6.94 28.09 7.36 27.71C7.78 27.32 8.32 27.12 9.01 27.09L30.03 26.73C30.71 26.7 31.26 26.89 31.68 27.31C32.1 27.73 32.29 28.27 32.26 28.96L31.99 40.58C31.96 41.26 31.75 41.8 31.37 42.21C30.99 42.62 30.45 42.81 29.77 42.81L9.24 42.94H9.22ZM10.24 18.85C10.69 18.82 11.13 18.8 11.58 18.78C12.02 18.77 12.45 18.76 12.87 18.76V9.67998L10.24 9.71998V18.85ZM14.43 37.02L24.81 36.93V32.74L14.43 32.87V37.01V37.02ZM26.81 25.13C26.36 25.13 26.03 24.94 25.81 24.57C25.59 24.2 25.48 23.79 25.48 23.35L25.21 4.06998C25.21 3.17998 25.64 2.72998 26.5 2.72998H31.93C32.82 2.72998 33.25 3.17998 33.22 4.06998L33.04 10.39H36.69C37.16 10.39 37.54 10.53 37.83 10.81C38.11 11.09 38.25 11.47 38.25 11.95V15.6C38.25 16.08 38.11 16.45 37.83 16.74C37.55 17.02 37.17 17.16 36.69 17.16H32.9L32.77 23.35C32.74 23.8 32.62 24.2 32.41 24.57C32.2 24.94 31.88 25.13 31.43 25.13H26.8H26.81Z" fill="#60C91C"/>
</g>
<defs>
<clipPath id="clip0_211_955">
<rect width="77.81" height="42.94" fill="white"/>
</clipPath>
</defs>
</svg>
